# xmcd CD database file
# Copyright (C) 1996 Ti Kan
#
# Track frame offsets:
#  150
#  13588
#  22893
#  34725
#  47778
#  61228
#  73413
#  84193
#  95385
#  106540
#  118478
#  129840
#  141923
#  161230
#  174620
#  187705
#  199748
#  213308
#  228505
#  242343
#  255385
#  267688
#  283215
#  295920
#  306880
#
# Disc length: 4273 seconds
#
# Revision: 1
# Processed by: cddbd v1.4b41PL1 Copyright (c) Steve Scherf et al.
# Submitted via: CDWizzard Release:4.10
#
DISCID=6510af19
DTITLE=Tammy Wynette - Tammy Wynette: Legendary Country Singers
DYEAR=1900
DGENRE=
TTITLE0=Apartment #9
TTITLE1=Your Good Girl's Gonna Go Bad
TTITLE2=I Don't Wanna Play House
TTITLE3=My Elusive Dreams
TTITLE4=D-I-V-O-R-C-E
TTITLE5=Stand by Your Man
TTITLE6=Singing My Song
TTITLE7=The Ways to Love a Man
TTITLE8=Run, Woman, Run
TTITLE9=He Loves Me All the Way
TTITLE10=Good Lovin' (Makes It Right)
TTITLE11='Till I Get It Right
TTITLE12=Bedtime Story
TTITLE13=We're Gonna Hold On
TTITLE14=My Man (Understands)
TTITLE15=Another Lonely Song
TTITLE16=Woman to Woman
TTITLE17=You and Me
TTITLE18='Till I Can Make It on My Own
TTITLE19=Southern California
TTITLE20=Another Chance
TTITLE21=Talkin' to Myself Again
TTITLE22=We're Strangers Again
TTITLE23=Silver Threads and Golden Needles
TTITLE24=Don't Come Home a-Drinkin' (With Lovin on You Mind)
EXTD=
EXTT0=Tammy Wynette
EXTT1=Tammy Wynette
EXTT2=Tammy Wynette
EXTT3=Tammy Wynette and David Houston
EXTT4=Tammy Wynette
EXTT5=Tammy Wynette
EXTT6=Tammy Wynette
EXTT7=Tammy Wynette
EXTT8=Tammy Wynette
EXTT9=Tammy Wynette
EXTT10=Tammy Wynette
EXTT11=Tammy Wynette
EXTT12=Tammy Wynette
EXTT13=Tammy Wynette and George Jones
EXTT14=Tammy Wynette
EXTT15=Tammy Wynette
EXTT16=Tammy Wynette
EXTT17=Tammy Wynette
EXTT18=Tammy Wynette
EXTT19=Tammy Wynette and George Jones
EXTT20=Tammy Wynette
EXTT21=Tammy Wynette and the Okanes 
EXTT22=Tammy Wynette and Randy Travis
EXTT23=Tammy Wynette, Dolly Parton and Loretta Lynn
EXTT24=Tammy Wynette
PLAYORDER=
